<svg width="368" height="298" viewBox="0 0 368 298" fill="none" xmlns="http://www.w3.org/2000/svg">
<path d="M306.503 86.0329C306.568 86.2475 306.704 86.434 306.888 86.5622L352.123 118.082C352.857 118.594 353.248 119.468 353.133 120.336L353.133 120.337C348.421 156.245 328.917 189.423 303.892 215.837C303.728 216.01 303.631 216.236 303.619 216.474L300.891 269.702L300.891 269.702C300.843 270.644 300.229 271.484 299.349 271.809C263.264 285.101 225.812 283.627 188.231 276.671C188.031 276.634 187.823 276.659 187.638 276.743L145.465 295.784L145.463 295.785C144.64 296.159 143.678 296.039 142.985 295.477C116.967 274.334 97.7684 243.841 88.0695 211.968C88.0042 211.754 87.8687 211.567 87.6846 211.439L42.4573 179.915C42.457 179.915 42.4567 179.915 42.4563 179.914C41.7278 179.403 41.3351 178.528 41.4453 177.657C46.1581 141.749 65.662 108.572 90.6917 82.1642C90.8556 81.9913 90.9524 81.7655 90.9646 81.5275L89.9659 81.4763C90.9646 81.5275 90.9646 81.5273 90.9646 81.527L90.9647 81.5255L90.965 81.5197L90.9662 81.4963L90.9709 81.4041L90.9895 81.043L91.0602 79.6631L91.3167 74.6599L92.131 58.7778C92.7471 46.7585 93.4292 33.4501 93.6929 28.294L93.693 28.2935C93.7409 27.3466 94.3483 26.5181 95.2345 26.1923L95.2351 26.192C131.314 12.8999 168.772 14.3691 206.353 21.3305C206.553 21.3677 206.76 21.3426 206.946 21.2586L249.111 2.21246C249.112 2.21216 249.112 2.21186 249.113 2.21157C249.938 1.84208 250.901 1.96268 251.593 2.52421C277.605 23.6674 296.804 54.1658 306.503 86.0329Z" fill="#FFE84D" stroke="white" stroke-width="2" stroke-linecap="round" stroke-linejoin="round"/>
<path d="M195.321 113.087C206.727 116.355 212.093 113.518 212.933 110.943C215.105 104.278 196.313 101.936 190.153 89.5422C187.368 88.3 184.583 87.0578 181.793 85.8156" stroke="black" stroke-width="1.2" stroke-miterlimit="10" stroke-linecap="round" stroke-linejoin="round"/>
<path d="M185.133 99.1796C190.391 104.812 193.761 109.832 195.797 114.035C199.217 121.097 198.866 125.833 197.328 127.24C195.462 128.947 189.229 128.709 180.431 120.042" stroke="black" stroke-width="1.2" stroke-miterlimit="10" stroke-linecap="round" stroke-linejoin="round"/>
<path d="M199.223 85.8156C204.492 92.6448 220.034 98.5439 218.412 104.278C218.111 105.333 217.226 107.273 212.955 108.947" stroke="black" stroke-width="1.2" stroke-miterlimit="10" stroke-linecap="round" stroke-linejoin="round"/>
<path d="M213.602 96.5306C218.503 94.7893 219.529 92.6055 219.819 91.5504C221.169 86.6043 213.732 79.0433 200.63 73.0875L194.629 78.6689C194.946 79.741 195.525 81.2781 196.637 82.889C197.442 84.0518 198.338 84.9877 199.921 86.3207C202.519 88.5158 204.651 89.8374 205.86 90.6259C207.777 91.8681 210.477 93.7739 213.602 96.5306Z" fill="black" stroke="black" stroke-width="1.2" stroke-miterlimit="10" stroke-linecap="round" stroke-linejoin="round"/>
<path d="M221.895 263.836L221.9 254.052L213.199 251.817V253.859L209.603 249.865C208.894 249.077 207.448 248.856 206.381 249.383L197.345 253.808C196.994 251.766 196.483 248.697 196.483 248.328C196.483 247.772 187.448 249.763 187.448 249.763V259.593H187.453C187.459 259.917 187.578 260.24 187.839 260.529L199.773 273.779C200.488 274.573 201.929 274.789 203.001 274.267L220.896 265.504C221.656 265.118 222.008 264.466 221.895 263.836Z" fill="black" stroke="black" stroke-width="1.2" stroke-miterlimit="10" stroke-linecap="round" stroke-linejoin="round"/>
<path d="M207.38 247.716L207.385 237.931L198.684 235.696V237.738L195.088 233.745C194.379 232.957 192.933 232.736 191.866 233.263L182.831 237.687C182.479 235.645 181.968 232.577 181.968 232.208C181.968 231.652 172.933 233.643 172.933 233.643V243.473H172.938C172.944 243.796 173.063 244.12 173.324 244.409L185.258 257.659C185.973 258.453 187.414 258.669 188.486 258.147L206.381 249.383C207.141 249.003 207.499 248.351 207.38 247.716Z" fill="black" stroke="black" stroke-width="1.2" stroke-miterlimit="10" stroke-linecap="round" stroke-linejoin="round"/>
<path d="M192.87 231.601L192.876 221.817L184.175 219.582V221.624L180.579 217.631C179.87 216.842 178.423 216.621 177.357 217.148L168.321 221.573C167.969 219.531 167.459 216.462 167.459 216.093C167.459 215.537 158.423 217.528 158.423 217.528V227.358H158.429C158.434 227.682 158.554 228.005 158.814 228.294L170.749 241.544C171.463 242.338 172.904 242.554 173.976 242.032L191.872 233.269C192.632 232.883 192.989 232.231 192.87 231.601Z" fill="black" stroke="black" stroke-width="1.2" stroke-miterlimit="10" stroke-linecap="round" stroke-linejoin="round"/>
<path d="M178.355 215.481L178.361 205.696L169.66 203.461V205.503L166.064 201.51C165.355 200.722 163.908 200.501 162.842 201.028L153.806 205.452C153.454 203.41 152.944 200.342 152.944 199.973C152.944 199.417 143.908 201.408 143.908 201.408V211.238H143.914C143.919 211.561 144.039 211.885 144.299 212.174L156.234 225.424C156.948 226.218 158.389 226.434 159.461 225.912L177.357 217.148C178.117 216.768 178.474 216.116 178.355 215.481Z" fill="black" stroke="black" stroke-width="1.2" stroke-miterlimit="10" stroke-linecap="round" stroke-linejoin="round"/>
<path d="M163.846 199.367L163.851 189.583L155.15 187.348V189.39L151.554 185.397C150.845 184.608 149.399 184.387 148.332 184.914L139.297 189.339C138.945 187.297 138.434 184.228 138.434 183.859C138.434 183.304 129.399 185.295 129.399 185.295V195.124H129.404C129.41 195.448 129.529 195.771 129.79 196.06L141.724 209.31C142.439 210.105 143.88 210.32 144.952 209.798L162.847 201.035C163.607 200.655 163.965 199.997 163.846 199.367Z" fill="black" stroke="black" stroke-width="1.2" stroke-miterlimit="10" stroke-linecap="round" stroke-linejoin="round"/>
<path d="M98.236 161.828L98.2417 152.044L89.5406 149.809V151.851L85.9444 147.858C85.2354 147.069 83.789 146.848 82.7226 147.376L64.8269 156.139C63.7549 156.661 63.4656 157.727 64.1803 158.521L76.1145 171.772C76.8292 172.566 78.2699 172.781 79.342 172.259L97.2377 163.496C97.9978 163.116 98.3551 162.464 98.236 161.828Z" fill="black" stroke="black" stroke-width="1.2" stroke-miterlimit="10" stroke-linecap="round" stroke-linejoin="round"/>
<path d="M134.146 96.8927C134.861 97.6868 134.572 98.7532 133.505 99.275L115.61 108.039C114.537 108.56 113.097 108.345 112.382 107.551L100.448 94.3006C99.7388 93.5121 100.028 92.4457 101.094 91.9182L118.99 83.1547C120.056 82.6329 121.503 82.8484 122.212 83.6369L134.146 96.8927Z" fill="black" stroke="black" stroke-width="1.2" stroke-miterlimit="10" stroke-linecap="round" stroke-linejoin="round"/>
<path d="M98.2299 92.157L98.2356 82.3726L89.5345 80.1377V82.1797L85.9383 78.1865C85.2293 77.3981 83.7829 77.1768 82.7165 77.7043L64.8208 86.4679C63.7488 86.9897 63.4595 88.0561 64.1742 88.8502L76.1085 102.1C76.8231 102.894 78.2639 103.11 79.3359 102.588L97.2316 93.8247C97.9917 93.4446 98.349 92.7867 98.2299 92.157Z" fill="black" stroke="black" stroke-width="1.2" stroke-miterlimit="10" stroke-linecap="round" stroke-linejoin="round"/>
<path d="M214.634 220.938L214.64 211.154L205.939 208.919V210.961L202.343 206.968C201.634 206.179 200.187 205.958 199.121 206.485L190.085 210.91C189.734 208.868 189.223 205.799 189.223 205.43C189.223 204.874 180.187 206.865 180.187 206.865V216.695H180.193C180.199 217.019 180.318 217.342 180.579 217.631L192.513 230.881C193.228 231.676 194.668 231.891 195.74 231.369L213.636 222.606C214.396 222.226 214.754 221.573 214.634 220.938Z" fill="#FFE84D" stroke="black" stroke-width="1.2" stroke-miterlimit="10" stroke-linecap="round" stroke-linejoin="round"/>
<path d="M243.664 253.173L243.67 243.389L234.969 241.154V243.196L231.373 239.203C230.664 238.414 229.217 238.193 228.151 238.72L219.115 243.145C218.764 241.103 218.253 238.034 218.253 237.665C218.253 237.109 209.217 239.1 209.217 239.1V248.93H209.223C209.229 249.254 209.348 249.577 209.609 249.866L221.543 263.116C222.258 263.91 223.698 264.126 224.77 263.604L242.666 254.841C243.426 254.455 243.778 253.803 243.664 253.173Z" fill="#FFE84D" stroke="black" stroke-width="1.2" stroke-miterlimit="10" stroke-linecap="round" stroke-linejoin="round"/>
<path d="M76.4657 102.815L76.4714 93.0301L67.7703 90.7953V92.8373L64.1741 88.8441C63.4651 88.0556 62.0187 87.8344 60.9523 88.3619L43.0566 97.1254C41.9846 97.6473 41.6953 98.7137 42.41 99.5078L54.3443 112.758C55.059 113.552 56.4997 113.768 57.5717 113.246L75.4674 104.482C76.2275 104.102 76.5849 103.45 76.4657 102.815Z" fill="#FFE84D" stroke="black" stroke-width="1.2" stroke-miterlimit="10" stroke-linecap="round" stroke-linejoin="round"/>
<path d="M69.211 129.593L69.2167 119.809L60.5156 117.574V119.616L56.9194 115.623C56.2104 114.834 54.764 114.613 53.6976 115.141L35.8019 123.904C34.7299 124.426 34.4406 125.492 35.1553 126.287L47.0895 139.537C47.8042 140.331 49.245 140.546 50.317 140.025L68.2127 131.261C68.9728 130.881 69.3301 130.229 69.211 129.593Z" fill="#FFE84D" stroke="black" stroke-width="1.2" stroke-miterlimit="10" stroke-linecap="round" stroke-linejoin="round"/>
<path d="M163.534 129.843L163.539 120.058L154.838 117.823V119.865L151.242 115.872C150.533 115.084 149.087 114.863 148.02 115.39L130.124 124.154C129.052 124.675 128.763 125.742 129.478 126.536L141.412 139.786C142.127 140.58 143.568 140.796 144.64 140.274L162.535 131.51C163.295 131.13 163.653 130.478 163.534 129.843Z" fill="#FFE84D" stroke="black" stroke-width="1.2" stroke-miterlimit="10" stroke-linecap="round" stroke-linejoin="round"/>
<path d="M141.407 139.786L129.473 126.536C128.763 125.748 127.317 125.527 126.251 126.054L120.856 128.697L121.146 126.922L107.317 126.411V136.196H107.323C107.306 136.542 107.43 136.894 107.708 137.2L119.643 150.45C120.357 151.244 121.798 151.46 122.87 150.938L140.766 142.174C141.832 141.647 142.121 140.581 141.407 139.786Z" fill="black" stroke="black" stroke-width="1.2" stroke-miterlimit="10" stroke-linecap="round" stroke-linejoin="round"/>
<path d="M54.339 112.758L42.4047 99.5081C41.6957 98.7197 40.2493 98.4985 39.1829 99.026L33.7887 101.669L34.078 99.8938L20.2492 99.3833V109.168H20.2549C20.2379 109.514 20.3627 109.866 20.6406 110.172L32.5748 123.422C33.2895 124.216 34.7303 124.432 35.8023 123.91L53.698 115.146C54.7644 114.619 55.0537 113.552 54.339 112.758Z" fill="black" stroke="black" stroke-width="1.2" stroke-miterlimit="10" stroke-linecap="round" stroke-linejoin="round"/>
<path d="M68.8541 119.094C69.5688 119.888 69.2796 120.954 68.2132 121.476L50.3175 130.24C49.2454 130.762 47.8047 130.546 47.09 129.752L35.1558 116.502C34.4467 115.713 34.736 114.647 35.8024 114.119L53.6981 105.356C54.7645 104.834 56.2109 105.05 56.9199 105.838L68.8541 119.094Z" fill="white" stroke="black" stroke-width="1.2" stroke-miterlimit="10" stroke-linecap="round" stroke-linejoin="round"/>
<path d="M54.3385 102.974C55.0532 103.768 54.764 104.834 53.6976 105.356L35.8019 114.119C34.7298 114.641 33.2891 114.426 32.5744 113.632L20.6402 100.381C19.9311 99.5931 20.2204 98.5267 21.2868 97.9992L39.1825 89.2357C40.2489 88.7138 41.6953 88.9294 42.4043 89.7178L54.3385 102.974Z" fill="white" stroke="black" stroke-width="1.2" stroke-miterlimit="10" stroke-linecap="round" stroke-linejoin="round"/>
<path d="M76.1028 92.3161C76.8175 93.1102 76.5282 94.1765 75.4618 94.6984L57.5661 103.462C56.4941 103.984 55.0533 103.768 54.3386 102.974L42.4044 89.7239C41.6954 88.9355 41.9846 87.8691 43.051 87.3416L60.9467 78.5781C62.0131 78.0562 63.4595 78.2718 64.1685 79.0602L76.1028 92.3161Z" fill="white" stroke="black" stroke-width="1.2" stroke-miterlimit="10" stroke-linecap="round" stroke-linejoin="round"/>
<path d="M97.8725 81.652C98.5872 82.4461 98.2979 83.5125 97.2315 84.0343L79.3358 92.7978C78.2638 93.3197 76.8231 93.1041 76.1084 92.31L64.1741 79.0598C63.4651 78.2714 63.7544 77.205 64.8207 76.6775L82.7164 67.914C83.7828 67.3922 85.2292 67.6077 85.9382 68.3961L97.8725 81.652Z" fill="white" stroke="black" stroke-width="1.2" stroke-miterlimit="10" stroke-linecap="round" stroke-linejoin="round"/>
<path d="M97.8727 151.324C98.5874 152.118 98.2981 153.184 97.2317 153.706L79.336 162.47C78.264 162.991 76.8232 162.776 76.1085 161.982L64.1743 148.732C63.4653 147.943 63.7545 146.877 64.8209 146.349L82.7166 137.586C83.783 137.064 85.2294 137.279 85.9384 138.068L97.8727 151.324Z" fill="white" stroke="black" stroke-width="1.2" stroke-miterlimit="10" stroke-linecap="round" stroke-linejoin="round"/>
<path d="M134.146 87.1086C134.861 87.9027 134.572 88.969 133.505 89.4909L115.61 98.2544C114.538 98.7762 113.097 98.5607 112.382 97.7666L100.448 84.5164C99.7389 83.7279 100.028 82.6616 101.095 82.1341L118.99 73.3705C120.057 72.8487 121.503 73.0643 122.212 73.8527L134.146 87.1086Z" fill="white" stroke="black" stroke-width="1.2" stroke-miterlimit="10" stroke-linecap="round" stroke-linejoin="round"/>
<path d="M47.0841 139.536L35.1498 126.286C34.4408 125.497 32.9944 125.276 31.928 125.804L26.5338 128.447L26.8231 126.671L13 126.155V135.94H13.0057C12.9887 136.286 13.1134 136.638 13.3914 136.944L25.3256 150.194C26.0403 150.988 27.4811 151.204 28.5531 150.682L46.4488 141.918C47.5095 141.391 47.7988 140.33 47.0841 139.536Z" fill="black" stroke="black" stroke-width="1.2" stroke-miterlimit="10" stroke-linecap="round" stroke-linejoin="round"/>
<path d="M61.5992 155.651L49.665 142.401C48.9559 141.612 47.5095 141.391 46.4432 141.918L41.0489 144.562L41.3382 142.786L27.5095 142.276V152.06H27.5151C27.4981 152.406 27.6229 152.758 27.9008 153.064L39.8351 166.314C40.5498 167.109 41.9905 167.324 43.0626 166.802L60.9583 158.039C62.0246 157.511 62.3139 156.445 61.5992 155.651Z" fill="black" stroke="black" stroke-width="1.2" stroke-miterlimit="10" stroke-linecap="round" stroke-linejoin="round"/>
<path d="M47.0843 129.752C47.799 130.547 47.5097 131.613 46.4433 132.135L28.5476 140.898C27.4756 141.42 26.0348 141.205 25.3202 140.41L13.3916 127.166C12.6826 126.377 12.9718 125.311 14.0382 124.784L31.9339 116.02C33.0003 115.498 34.4467 115.714 35.1557 116.502L47.0843 129.752Z" fill="white" stroke="black" stroke-width="1.2" stroke-miterlimit="10" stroke-linecap="round" stroke-linejoin="round"/>
<path d="M61.5994 145.873C62.3141 146.667 62.0248 147.733 60.9584 148.255L43.0627 157.019C41.9907 157.54 40.55 157.325 39.8353 156.531L27.901 143.281C27.192 142.492 27.4813 141.426 28.5476 140.898L46.4433 132.135C47.5097 131.613 48.9561 131.828 49.6651 132.617L61.5994 145.873Z" fill="white" stroke="black" stroke-width="1.2" stroke-miterlimit="10" stroke-linecap="round" stroke-linejoin="round"/>
<path d="M149.019 113.729L149.025 103.944L140.323 101.709V103.751L136.727 99.7579C136.018 98.9695 134.572 98.7483 133.505 99.2758L124.47 103.7C124.118 101.658 123.608 98.5895 123.608 98.2208C123.608 97.6649 114.572 99.6558 114.572 99.6558V109.486H114.577C114.583 109.809 114.702 110.132 114.963 110.422L126.897 123.672C127.612 124.466 129.053 124.681 130.125 124.16L148.021 115.396C148.781 115.016 149.138 114.364 149.019 113.729Z" fill="black" stroke="black" stroke-width="1.2" stroke-miterlimit="10" stroke-linecap="round" stroke-linejoin="round"/>
<path d="M148.661 103.223C149.376 104.017 149.087 105.083 148.02 105.605L130.124 114.369C129.052 114.891 127.612 114.675 126.897 113.881L114.963 100.631C114.254 99.8423 114.543 98.7759 115.609 98.2484L133.505 89.4849C134.571 88.9631 136.018 89.1786 136.727 89.9671L148.661 103.223Z" fill="white" stroke="black" stroke-width="1.2" stroke-miterlimit="10" stroke-linecap="round" stroke-linejoin="round"/>
<path d="M141.406 130.002C142.121 130.796 141.832 131.862 140.765 132.384L122.87 141.148C121.798 141.669 120.357 141.454 119.642 140.66L107.708 127.41C106.999 126.621 107.288 125.555 108.355 125.027L126.25 116.264C127.317 115.742 128.763 115.957 129.472 116.746L141.406 130.002Z" fill="white" stroke="black" stroke-width="1.2" stroke-miterlimit="10" stroke-linecap="round" stroke-linejoin="round"/>
<path d="M163.171 119.343C163.885 120.137 163.596 121.204 162.53 121.725L144.634 130.489C143.562 131.011 142.121 130.795 141.406 130.001L129.472 116.751C128.763 115.963 129.052 114.896 130.119 114.369L148.015 105.605C149.081 105.083 150.527 105.299 151.236 106.087L163.171 119.343Z" fill="white" stroke="black" stroke-width="1.2" stroke-miterlimit="10" stroke-linecap="round" stroke-linejoin="round"/>
<path d="M221.537 253.326C222.252 254.12 221.963 255.186 220.897 255.708L202.995 264.478C201.929 264.999 200.482 264.784 199.773 263.99L187.839 250.74C187.13 249.951 187.419 248.885 188.486 248.363L206.387 239.594C207.453 239.072 208.9 239.287 209.609 240.076L221.537 253.326Z" fill="white" stroke="black" stroke-width="1.2" stroke-miterlimit="10" stroke-linecap="round" stroke-linejoin="round"/>
<path d="M207.023 237.211C207.737 238.005 207.448 239.072 206.382 239.594L188.48 248.363C187.414 248.885 185.967 248.669 185.258 247.875L173.324 234.625C172.615 233.836 172.904 232.77 173.971 232.248L191.872 223.479C192.939 222.957 194.385 223.173 195.094 223.961L207.023 237.211Z" fill="white" stroke="black" stroke-width="1.2" stroke-miterlimit="10" stroke-linecap="round" stroke-linejoin="round"/>
<path d="M163.489 188.862C164.203 189.656 163.914 190.722 162.848 191.244L144.946 200.013C143.88 200.535 142.433 200.32 141.724 199.526L129.79 186.275C129.081 185.487 129.37 184.421 130.437 183.899L148.338 175.13C149.405 174.608 150.851 174.823 151.56 175.612L163.489 188.862Z" fill="white" stroke="black" stroke-width="1.2" stroke-miterlimit="10" stroke-linecap="round" stroke-linejoin="round"/>
<path d="M177.998 204.976C178.713 205.77 178.423 206.837 177.357 207.359L159.456 216.128C158.389 216.65 156.943 216.434 156.234 215.64L144.3 202.39C143.591 201.601 143.88 200.535 144.946 200.013L162.848 191.244C163.914 190.722 165.36 190.938 166.069 191.726L177.998 204.976Z" fill="white" stroke="black" stroke-width="1.2" stroke-miterlimit="10" stroke-linecap="round" stroke-linejoin="round"/>
<path d="M243.302 242.668C244.016 243.463 243.727 244.529 242.661 245.051L224.759 253.82C223.693 254.342 222.247 254.126 221.538 253.332L209.603 240.082C208.894 239.294 209.184 238.227 210.25 237.705L228.151 228.936C229.218 228.414 230.664 228.63 231.373 229.418L243.302 242.668Z" fill="white" stroke="black" stroke-width="1.2" stroke-miterlimit="10" stroke-linecap="round" stroke-linejoin="round"/>
<path d="M192.513 221.097C193.228 221.891 192.938 222.957 191.872 223.479L173.971 232.248C172.904 232.77 171.458 232.554 170.749 231.76L158.815 218.51C158.106 217.722 158.395 216.655 159.461 216.133L177.363 207.364C178.429 206.842 179.875 207.058 180.584 207.846L192.513 221.097Z" fill="white" stroke="black" stroke-width="1.2" stroke-miterlimit="10" stroke-linecap="round" stroke-linejoin="round"/>
<path d="M187.323 222.004L187.289 220.445L188.276 221.539L187.323 222.004Z" fill="white"/>
<path d="M214.277 210.434C214.992 211.228 214.703 212.294 213.636 212.816L195.735 221.585C194.668 222.107 193.222 221.891 192.513 221.097L180.579 207.847C179.87 207.059 180.159 205.992 181.225 205.47L199.127 196.701C200.193 196.179 201.64 196.395 202.349 197.183L214.277 210.434Z" fill="white" stroke="black" stroke-width="1.2" stroke-miterlimit="10" stroke-linecap="round" stroke-linejoin="round"/>
<path d="M162.297 197.098L162.547 203.621L165.655 207.069L163.653 208.051L160.567 204.619L152.49 201.902L154.799 200.773L160.323 202.679L160.079 198.187L162.297 197.098Z" fill="black"/>
<path d="M154.237 189.435L146.897 193.031L139.642 184.971L146.84 181.448L148.037 182.776L142.841 185.322L144.52 187.183L148.1 185.425L149.302 186.757L145.717 188.516L147.702 190.717L153.034 188.102L154.237 189.435Z" fill="black"/>
<path d="M161.129 189.843L158.735 191.017L158.384 190.626L158.639 189.769C158.905 188.862 158.905 188.561 158.696 188.329C158.48 188.09 158.14 188.022 157.805 188.181C157.527 188.317 157.374 188.584 157.584 188.89L156.858 189.111C156.512 188.55 156.812 188.034 157.436 187.727C158.145 187.381 158.911 187.495 159.348 187.983C159.671 188.346 159.631 188.76 159.342 189.741L159.246 190.104L160.715 189.384L161.129 189.843Z" fill="black"/>
<path d="M178.242 212.515L183.307 221.647L181.203 222.679L176.472 220.751L177.113 224.681L174.992 225.719L165.548 218.731L167.561 217.744L174.788 223.076L174.028 218.357L174.447 218.147L180.136 220.473L176.257 213.49L178.242 212.515Z" fill="black"/>
<path d="M189.302 221.664L189.819 222.237L189.183 222.549L188.667 221.976L187.028 222.776L186.665 222.367L186.597 219.945L187.402 219.548L188.911 221.227L189.427 220.978L189.819 221.414L189.302 221.664ZM187.323 222.004L188.276 221.539L187.289 220.444L187.323 222.004Z" fill="black"/>
<path d="M174.946 205.181C175.4 205.685 175.105 206.27 174.408 206.61C173.795 206.911 173.024 206.962 172.428 206.468L172.961 206.02C173.262 206.281 173.636 206.338 174.005 206.156C174.334 205.992 174.487 205.731 174.266 205.481C174.062 205.254 173.71 205.232 173.421 205.373L173.075 205.544L172.672 205.101L172.95 204.965C173.216 204.835 173.352 204.608 173.148 204.381C172.961 204.171 172.626 204.143 172.337 204.279C172.042 204.426 171.929 204.664 172.065 204.925L171.345 205.124C171.084 204.653 171.316 204.154 171.974 203.831C172.655 203.496 173.375 203.575 173.761 204.001C173.971 204.233 174.016 204.489 173.812 204.818C174.288 204.749 174.685 204.891 174.946 205.181Z" fill="black"/>
<path d="M195.536 233.076C197.686 235.464 196.983 238.328 193.761 239.905C190.539 241.482 186.688 240.847 184.538 238.465C182.382 236.071 183.091 233.212 186.313 231.635C189.541 230.053 193.381 230.677 195.536 233.076ZM186.614 237.444C188.123 239.123 190.477 239.548 192.536 238.538C194.595 237.529 194.969 235.765 193.46 234.091C191.951 232.412 189.603 231.987 187.544 232.997C185.485 234.001 185.105 235.77 186.614 237.444Z" fill="black"/>
<path d="M210.868 254.597L205.213 252.753L203.471 253.604L206.353 256.803L204.35 257.785L197.096 249.724L201.316 247.654C203.42 246.622 205.763 246.854 207.084 248.329C208.049 249.401 207.913 250.541 206.982 251.466L213.142 253.479L210.868 254.597ZM202.269 252.271L204.458 251.199C205.445 250.717 205.683 249.98 205.082 249.316C204.492 248.664 203.471 248.528 202.484 249.01L200.295 250.082L202.269 252.271Z" fill="black"/>
<path d="M203.908 237.279C204.39 237.812 204.237 238.453 203.438 238.839C202.831 239.134 202.071 239.185 201.526 238.748L202.065 238.305C202.343 238.555 202.729 238.538 203.035 238.385C203.421 238.198 203.506 237.88 203.262 237.608C203.001 237.319 202.575 237.267 202.207 237.449C201.974 237.562 201.827 237.738 201.844 237.908L201.191 238.067L200.204 236.49L202.122 235.549L202.513 235.986L201.118 236.666L201.515 237.302C201.622 237.171 201.77 237.063 201.957 236.973C202.677 236.638 203.455 236.774 203.908 237.279Z" fill="black"/>
<path d="M218.463 253.406C218.957 253.956 218.713 254.585 217.987 254.937C217.272 255.289 216.41 255.221 215.922 254.682C215.707 254.444 215.633 254.171 215.627 253.888L215.61 252.18L216.342 251.823V253.23C216.393 253.196 216.45 253.162 216.518 253.133C217.193 252.804 217.998 252.889 218.463 253.406ZM216.557 254.336C216.801 254.608 217.232 254.676 217.59 254.5C217.958 254.319 218.043 254.001 217.8 253.729C217.561 253.462 217.136 253.411 216.773 253.587C216.614 253.667 216.495 253.78 216.45 253.899C216.399 254.041 216.433 254.2 216.557 254.336Z" fill="black"/>
<path d="M76.4722 172.492L76.4778 162.708L67.7767 160.473V162.515L64.1806 158.522C63.4715 157.733 62.0251 157.512 60.9588 158.039L51.923 162.464C51.5713 160.422 51.0608 157.353 51.0608 156.984C51.0608 156.429 42.0251 158.419 42.0251 158.419V168.249H42.0307C42.0364 168.573 42.1555 168.896 42.4164 169.185L54.3507 182.435C55.0654 183.23 56.5061 183.445 57.5782 182.923L75.4739 174.16C76.2339 173.774 76.5913 173.122 76.4722 172.492Z" fill="black"/>
<path d="M76.4719 172.493L76.4776 162.708L70.7374 161.234L55.9557 169.277V183.179C56.5002 183.236 57.0788 183.162 57.5723 182.918L75.468 174.155C76.2337 173.775 76.5911 173.122 76.4719 172.493Z" fill="#FFE84D"/>
<path d="M76.4722 172.492L76.4778 162.708L67.7767 160.473V162.515L64.1806 158.522C63.4715 157.733 62.0251 157.512 60.9588 158.039L51.923 162.464C51.5713 160.422 51.0608 157.353 51.0608 156.984C51.0608 156.429 42.0251 158.419 42.0251 158.419V168.249H42.0307C42.0364 168.573 42.1555 168.896 42.4164 169.185L54.3507 182.435C55.0654 183.23 56.5061 183.445 57.5782 182.923L75.4739 174.16C76.2339 173.774 76.5913 173.122 76.4722 172.492Z" stroke="black" stroke-width="1.2" stroke-miterlimit="10" stroke-linecap="round" stroke-linejoin="round"/>
<path d="M76.1089 161.988C76.8236 162.782 76.5343 163.848 75.4679 164.37L57.5722 173.133C56.5002 173.655 55.0594 173.44 54.3447 172.646L42.4105 159.395C41.7015 158.607 41.9908 157.541 43.0571 157.013L60.9528 148.25C62.0192 147.728 63.4656 147.943 64.1746 148.732L76.1089 161.988Z" fill="white" stroke="black" stroke-width="1.2" stroke-miterlimit="10" stroke-linecap="round" stroke-linejoin="round"/>
<path d="M112.751 177.943L112.757 168.159L104.056 165.924V167.966L100.46 163.972C99.7507 163.184 98.3043 162.963 97.238 163.49L88.2022 167.915C87.8505 165.873 87.34 162.804 87.34 162.435C87.34 161.879 78.3043 163.87 78.3043 163.87V173.7H78.3099C78.3156 174.024 78.4347 174.347 78.6956 174.636L90.6299 187.886C91.3446 188.68 92.7853 188.896 93.8574 188.374L111.753 179.611C112.513 179.231 112.865 178.578 112.751 177.943Z" fill="black"/>
<path d="M112.751 177.944L112.757 168.159L107.017 166.685L92.2349 174.728V188.63C92.7794 188.687 93.3579 188.613 93.8514 188.369L111.747 179.606C112.513 179.231 112.865 178.579 112.751 177.944Z" fill="#FFE84D"/>
<path d="M112.751 177.943L112.757 168.159L104.056 165.924V167.966L100.46 163.972C99.7507 163.184 98.3043 162.963 97.238 163.49L88.2022 167.915C87.8505 165.873 87.34 162.804 87.34 162.435C87.34 161.879 78.3043 163.87 78.3043 163.87V173.7H78.3099C78.3156 174.024 78.4347 174.347 78.6956 174.636L90.6299 187.886C91.3446 188.68 92.7853 188.896 93.8574 188.374L111.753 179.611C112.513 179.231 112.865 178.578 112.751 177.943Z" stroke="black" stroke-width="1.2" stroke-miterlimit="10" stroke-linecap="round" stroke-linejoin="round"/>
<path d="M112.388 167.444C113.103 168.238 112.813 169.305 111.747 169.826L93.8514 178.59C92.7794 179.112 91.3387 178.896 90.624 178.102L78.6897 164.852C77.9807 164.064 78.27 162.997 79.3363 162.47L97.232 153.706C98.2984 153.184 99.7448 153.4 100.454 154.188L112.388 167.444Z" fill="white" stroke="black" stroke-width="1.2" stroke-miterlimit="10" stroke-linecap="round" stroke-linejoin="round"/>
<path d="M156.279 156.621L156.285 146.837L147.584 144.602V146.644L143.988 142.651C143.279 141.862 141.832 141.641 140.766 142.168L131.73 146.593C131.378 144.551 130.868 141.482 130.868 141.113C130.868 140.558 121.832 142.549 121.832 142.549V152.378H121.838C121.844 152.702 121.963 153.025 122.224 153.314L134.158 166.565C134.873 167.359 136.313 167.574 137.385 167.052L155.281 158.289C156.041 157.909 156.398 157.256 156.279 156.621Z" fill="black"/>
<path d="M156.279 156.622L156.285 146.837L150.545 145.363L135.763 153.406V167.308C136.307 167.365 136.886 167.291 137.379 167.047L155.275 158.284C156.041 157.91 156.398 157.257 156.279 156.622Z" fill="#FFE84D"/>
<path d="M156.279 156.621L156.285 146.837L147.584 144.602V146.644L143.988 142.651C143.279 141.862 141.832 141.641 140.766 142.168L131.73 146.593C131.378 144.551 130.868 141.482 130.868 141.113C130.868 140.558 121.832 142.549 121.832 142.549V152.378H121.838C121.844 152.702 121.963 153.025 122.224 153.314L134.158 166.565C134.873 167.359 136.313 167.574 137.385 167.052L155.281 158.289C156.041 157.909 156.398 157.256 156.279 156.621Z" stroke="black" stroke-width="1.2" stroke-miterlimit="10" stroke-linecap="round" stroke-linejoin="round"/>
<path d="M155.916 146.122C156.631 146.916 156.341 147.982 155.275 148.504L137.379 157.268C136.307 157.79 134.866 157.574 134.152 156.78L122.218 143.53C121.508 142.741 121.798 141.675 122.864 141.147L140.76 132.384C141.826 131.862 143.273 132.078 143.982 132.866L155.916 146.122Z" fill="white" stroke="black" stroke-width="1.2" stroke-miterlimit="10" stroke-linecap="round" stroke-linejoin="round"/>
<path d="M112.745 108.271L112.751 98.487L104.05 96.2521V98.2941L100.454 94.3009C99.7448 93.5125 98.2984 93.2913 97.232 93.8188L88.1962 98.2431C87.8445 96.2011 87.3341 93.1324 87.3341 92.7637C87.3341 92.2079 78.2983 94.1988 78.2983 94.1988V104.029H78.3039C78.3096 104.352 78.4287 104.675 78.6897 104.965L90.6239 118.215C91.3386 119.009 92.7793 119.224 93.8514 118.703L111.747 109.939C112.507 109.559 112.865 108.907 112.745 108.271Z" fill="black"/>
<path d="M112.745 108.272L112.751 98.4877L107.011 97.0129L92.2289 105.056V118.959C92.7734 119.015 93.352 118.942 93.8455 118.698L111.741 109.934C112.507 109.56 112.864 108.907 112.745 108.272Z" fill="#FFE84D"/>
<path d="M112.745 108.271L112.751 98.487L104.05 96.2521V98.2941L100.454 94.3009C99.7448 93.5125 98.2984 93.2913 97.232 93.8188L88.1962 98.2431C87.8445 96.2011 87.3341 93.1324 87.3341 92.7637C87.3341 92.2079 78.2983 94.1988 78.2983 94.1988V104.029H78.3039C78.3096 104.352 78.4287 104.675 78.6897 104.965L90.6239 118.215C91.3386 119.009 92.7793 119.224 93.8514 118.703L111.747 109.939C112.507 109.559 112.865 108.907 112.745 108.271Z" stroke="black" stroke-width="1.2" stroke-miterlimit="10" stroke-linecap="round" stroke-linejoin="round"/>
<path d="M112.382 97.7722C113.097 98.5664 112.807 99.6327 111.741 100.155L93.8453 108.918C92.7732 109.44 91.3325 109.224 90.6178 108.43L78.6836 95.1801C77.9745 94.3916 78.2638 93.3253 79.3302 92.7977L97.2259 84.0342C98.2923 83.5124 99.7387 83.728 100.448 84.5164L112.382 97.7722Z" fill="white" stroke="black" stroke-width="1.2" stroke-miterlimit="10" stroke-linecap="round" stroke-linejoin="round"/>
<path d="M236.405 279.951L236.41 270.166L227.709 267.931V269.973L224.113 265.98C223.404 265.192 221.958 264.97 220.891 265.498L211.856 269.922C211.504 267.88 210.993 264.812 210.993 264.443C210.993 263.887 201.958 265.878 201.958 265.878V275.708H201.963C201.969 276.031 202.088 276.354 202.349 276.644L214.283 289.894C214.998 290.688 216.439 290.904 217.511 290.382L235.406 281.618C236.166 281.238 236.524 280.58 236.405 279.951Z" fill="black"/>
<path d="M236.404 279.951L236.41 270.167L230.67 268.692L215.888 276.735V290.638C216.433 290.694 217.011 290.621 217.505 290.377L235.4 281.613C236.166 281.239 236.524 280.581 236.404 279.951Z" fill="#FFE84D"/>
<path d="M236.405 279.951L236.41 270.166L227.709 267.931V269.973L224.113 265.98C223.404 265.192 221.958 264.97 220.891 265.498L211.856 269.922C211.504 267.88 210.993 264.812 210.993 264.443C210.993 263.887 201.958 265.878 201.958 265.878V275.708H201.963C201.969 276.031 202.088 276.354 202.349 276.644L214.283 289.894C214.998 290.688 216.439 290.904 217.511 290.382L235.406 281.618C236.166 281.238 236.524 280.58 236.405 279.951Z" stroke="black" stroke-width="1.2" stroke-miterlimit="10" stroke-linecap="round" stroke-linejoin="round"/>
<path d="M236.041 269.446C236.756 270.24 236.467 271.307 235.4 271.829L217.505 280.592C216.433 281.114 214.992 280.899 214.277 280.104L202.343 266.854C201.634 266.066 201.923 264.999 202.99 264.472L220.885 255.708C221.952 255.187 223.398 255.402 224.107 256.191L236.041 269.446Z" fill="white" stroke="black" stroke-width="1.2" stroke-miterlimit="10" stroke-linecap="round" stroke-linejoin="round"/>
<path d="M223.863 265.618C225.962 267.949 225.332 270.734 222.071 272.334L218.543 274.058L211.288 265.998L214.816 264.274C218.077 262.68 221.793 263.321 223.863 265.618ZM219.314 271.715L220.84 270.967C222.87 269.974 223.239 268.244 221.798 266.645C220.363 265.051 218.072 264.642 216.041 265.635L214.515 266.384L219.314 271.715Z" fill="black"/>
<path d="M231.617 268.165L232.207 271.148L231.52 271.489L230.936 268.528L229.251 269.35L228.86 268.919L231.248 267.751L231.617 268.165Z" fill="black"/>
<path d="M203.471 149.203L183.806 158.772C182.768 159.276 181.39 158.823 180.726 157.751L168.077 137.507C167.595 136.735 167.618 135.856 168.066 135.238L163.897 141.018C163.449 141.636 163.426 142.515 163.908 143.287L176.557 163.531C177.226 164.597 178.605 165.056 179.637 164.552L199.302 154.983C199.586 154.846 199.813 154.648 199.983 154.415L204.152 148.635C203.982 148.874 203.755 149.067 203.471 149.203Z" fill="black" stroke="black" stroke-width="1.2" stroke-miterlimit="10" stroke-linecap="round" stroke-linejoin="round"/>
<path d="M204.141 146.361C204.81 147.427 204.509 148.698 203.477 149.202L183.812 158.771C182.774 159.276 181.395 158.823 180.732 157.75L168.083 137.506C167.419 136.446 167.72 135.17 168.752 134.665L188.417 125.096C189.45 124.591 190.828 125.05 191.492 126.111L204.141 146.361Z" fill="white" stroke="black" stroke-width="1.2" stroke-miterlimit="10" stroke-linecap="round" stroke-linejoin="round"/>
<path d="M195.32 145.017L192.757 146.265L185.661 142.788L184.413 143.394L187.737 148.709L185.581 149.759L178.049 137.705L180.204 136.656L183.114 141.318L184.424 140.677L185.059 134.291L187.646 133.031L186.778 140.791L195.32 145.017Z" fill="black"/>
<path d="M200.709 147.506L200.017 147.841L198.219 144.965L197.425 145.351L197.147 144.908C197.64 144.63 197.748 144.131 197.64 143.762L198.202 143.49L200.709 147.506Z" fill="black"/>
<path d="M185.059 104.097C185.638 92.2479 196.517 83.3653 208.134 85.7419C211.35 86.3999 214.129 87.7782 215.973 89.7408C222.768 97.0069 220.817 107.239 212.808 115.192C196.285 130.768 190.437 147.733 196.012 154.415C197.209 155.85 202.615 157.546 206.506 154.92C213.959 150.393 219.569 147.33 228.043 142.991C250.692 131.392 272.439 123.127 292.212 117.188C296.807 115.81 301.538 114.954 306.319 114.619C322.264 113.507 338.202 112.39 354.147 111.278C354.986 101.686 355.213 89.945 353.727 76.6891C351.838 59.7974 347.754 45.7191 343.801 35.1064C325.945 37.0407 308.089 38.9749 290.233 40.9148C261.951 43.9097 214.935 35.1064 187.589 56.6494C177.606 64.511 171.253 73.8871 167.447 83.0987C166.273 85.9405 165.593 88.9637 165.411 92.0324C164.606 105.339 166.857 132.486 172.116 133.037C173.562 133.201 176.494 131.102 177.646 130.223C182.944 126.168 184.611 113.235 185.059 104.097Z" fill="#FFE84D"/>
<path d="M346.099 188.868L263.018 229.566V208.198L346.099 167.501V188.868Z" fill="#FFE84D" stroke="black" stroke-width="1.2" stroke-miterlimit="10" stroke-linecap="round" stroke-linejoin="round"/>
<path d="M355.599 199.424L346.098 188.868L263.018 229.566L272.519 240.116L355.599 199.424Z" fill="#FFE84D" stroke="black" stroke-width="1.2" stroke-miterlimit="10" stroke-linecap="round" stroke-linejoin="round"/>
<path d="M263.018 208.199V229.566L272.519 240.116C273.296 237.064 272.752 213.905 263.018 208.199Z" fill="black" stroke="black" stroke-width="1.2" stroke-miterlimit="10" stroke-linecap="round" stroke-linejoin="round"/>
<path d="M346.098 167.501V188.868L355.599 199.418C356.376 196.367 355.832 173.207 346.098 167.501Z" fill="black" stroke="black" stroke-width="1.2" stroke-miterlimit="10" stroke-linecap="round" stroke-linejoin="round"/>
<path d="M346.099 167.501L263.018 208.198C272.752 213.905 273.296 237.064 272.519 240.116L355.6 199.424C356.377 196.366 355.832 173.207 346.099 167.501ZM352.905 197.506L275.662 235.34C275.599 232.334 275.282 228.516 274.573 224.631C273.121 216.678 270.67 211.84 268.203 208.896L345.821 170.876C348.538 173.275 350.676 178.159 351.913 184.869C352.917 190.32 353.019 195.232 352.905 197.506Z" fill="white" stroke="black" stroke-width="1.2" stroke-miterlimit="10" stroke-linecap="round" stroke-linejoin="round"/>
<path d="M319.587 180.966L337.783 172.481C338.021 172.373 338.265 172.31 338.509 172.293L332.979 172.639C332.735 172.656 332.491 172.713 332.253 172.827L314.056 181.312C312.973 181.817 312.479 183.184 312.956 184.364L320.988 204.12C321.362 205.045 322.224 205.583 323.103 205.527L328.634 205.181C327.755 205.237 326.898 204.699 326.518 203.774L318.486 184.018C318.01 182.844 318.503 181.477 319.587 180.966Z" fill="black" stroke="black" stroke-width="1.2" stroke-miterlimit="10" stroke-linecap="round" stroke-linejoin="round"/>
<path d="M337.789 172.481C338.878 171.97 340.148 172.521 340.625 173.695L348.657 193.451C349.139 194.631 348.645 195.998 347.556 196.508L329.36 204.994C328.277 205.499 327.006 204.954 326.524 203.774L318.492 184.018C318.016 182.838 318.503 181.471 319.592 180.967L337.789 172.481Z" fill="white" stroke="black" stroke-width="1.2" stroke-miterlimit="10" stroke-linecap="round" stroke-linejoin="round"/>
<path d="M344.941 192.413C345.361 192.442 345.724 192.68 345.906 193.134C346.218 193.905 345.803 194.625 345.077 194.966C344.357 195.3 343.58 195.13 343.268 194.365C343.086 193.911 343.16 193.468 343.438 193.111C343.103 193.049 342.831 192.833 342.689 192.481C342.411 191.801 342.769 191.154 343.41 190.853C344.056 190.553 344.743 190.712 345.021 191.392C345.157 191.744 345.111 192.101 344.941 192.413ZM344.811 194.296C345.162 194.132 345.361 193.775 345.214 193.406C345.06 193.026 344.675 192.941 344.329 193.105C343.977 193.27 343.778 193.627 343.932 194.007C344.079 194.37 344.448 194.461 344.811 194.296ZM343.665 191.494C343.376 191.631 343.234 191.931 343.359 192.237C343.489 192.555 343.796 192.657 344.085 192.521C344.385 192.379 344.527 192.067 344.397 191.75C344.272 191.443 343.966 191.353 343.665 191.494Z" fill="black"/>
<path d="M336.036 180.178L334.862 188.902L336.95 194.041L334.908 194.994L332.832 189.877L326.059 184.829L328.407 183.734L333.036 187.251L333.779 181.233L336.036 180.178Z" fill="black"/>
<path d="M297.454 191.29L315.65 182.805C315.889 182.697 316.133 182.634 316.376 182.617L310.846 182.963C310.602 182.98 310.358 183.037 310.12 183.151L291.924 191.636C290.84 192.141 290.347 193.508 290.823 194.688L298.855 214.444C299.229 215.369 300.092 215.907 300.971 215.851L306.501 215.505C305.622 215.561 304.766 215.023 304.386 214.098L296.354 194.342C295.877 193.162 296.371 191.795 297.454 191.29Z" fill="black" stroke="black" stroke-width="1.2" stroke-miterlimit="10" stroke-linecap="round" stroke-linejoin="round"/>
<path d="M315.656 182.804C316.745 182.293 318.016 182.844 318.492 184.018L326.524 203.774C327.006 204.954 326.513 206.321 325.424 206.831L307.227 215.317C306.144 215.822 304.873 215.277 304.391 214.097L296.36 194.341C295.883 193.161 296.371 191.794 297.46 191.289L315.656 182.804Z" fill="white" stroke="black" stroke-width="1.2" stroke-miterlimit="10" stroke-linecap="round" stroke-linejoin="round"/>
<path d="M312.934 190.95L313.739 192.935L308.458 195.397L309.581 198.17L313.229 196.469L314.04 198.454L310.393 200.155L311.726 203.44L317.154 200.904L317.965 202.895L310.495 206.378L305.611 194.364L312.934 190.95Z" fill="black"/>
<path d="M322.412 200.712L322.672 201.359L321.254 202.017L321.476 202.93C321.6 202.771 321.759 202.657 321.946 202.572C322.672 202.232 323.359 202.555 323.659 203.304C323.983 204.104 323.705 204.921 322.894 205.301C322.281 205.59 321.572 205.516 321.169 204.841L321.754 204.353C321.958 204.733 322.309 204.779 322.621 204.637C323.013 204.456 323.155 204.053 322.99 203.644C322.814 203.219 322.44 203.066 322.066 203.242C321.827 203.355 321.657 203.565 321.634 203.792L321.005 203.888L320.443 201.619L322.412 200.712Z" fill="black"/>
<path d="M300.97 39.457C304.646 49.1451 308.486 61.9642 310.488 77.3585C312.366 91.7771 312.099 104.386 311.203 114.279C325.519 113.28 339.83 112.276 354.147 111.278C355.372 101.454 356.041 88.1639 353.96 72.6903C351.855 57.0521 347.624 44.301 343.801 35.1064C329.524 36.5585 315.247 38.0106 300.97 39.457Z" fill="black" stroke="black" stroke-width="1.2" stroke-miterlimit="10" stroke-linecap="round" stroke-linejoin="round"/>
<path d="M336.591 104.789C339.401 104.789 341.679 102.927 341.679 100.631C341.679 98.3348 339.401 96.4734 336.591 96.4734C333.781 96.4734 331.503 98.3348 331.503 100.631C331.503 102.927 333.781 104.789 336.591 104.789Z" fill="white"/>
<path d="M196.012 154.42C197.011 155.617 200.941 156.99 204.481 155.884C192.11 154.732 200.068 133.031 203.301 125.77C194.243 137.875 191.69 149.242 196.012 154.42Z" fill="white"/>
<path d="M167.447 83.0933C166.273 85.935 165.593 88.964 165.405 92.0326C164.6 105.34 166.852 132.487 172.11 133.031C172.49 133.071 172.859 133.076 173.216 133.037C178.667 128.709 165.247 101.233 176.506 78.1925C181.906 67.1375 203.477 48.9525 209.359 46.0143C201.361 48.2718 193.942 51.6354 187.584 56.6439C177.601 64.5112 171.248 73.8873 167.447 83.0933Z" fill="white"/>
<path d="M184.798 103.802C185.661 91.7204 197.141 83.025 208.905 85.9121C211.792 86.6211 214.282 87.9314 215.978 89.7408C222.774 97.0069 220.822 107.239 212.813 115.192C196.29 130.768 190.442 147.733 196.018 154.415C197.215 155.85 202.62 157.546 206.511 154.92C213.965 150.393 219.574 147.33 228.049 142.991C250.698 131.392 272.445 123.127 292.218 117.188C296.812 115.81 301.543 114.954 306.325 114.619C322.269 113.507 338.208 112.39 354.152 111.278C354.992 101.686 355.219 89.945 353.733 76.6891C351.844 59.7974 347.76 45.7191 343.806 35.1064C325.95 37.0407 308.094 38.9749 290.238 40.9148C261.957 43.9097 214.94 35.1064 187.595 56.6494C177.617 64.511 171.265 73.8814 167.459 83.0874C166.29 85.9178 165.604 88.924 165.417 91.9813C164.628 104.84 166.71 130.745 171.616 132.9C171.781 132.974 175.978 131.392 177.646 130.223C182.246 126.996 184.123 113.269 184.798 103.802Z" stroke="black" stroke-width="1.2" stroke-miterlimit="10" stroke-linecap="round" stroke-linejoin="round"/>
<path d="M196.075 96.7345C199.887 100.28 212.581 106.275 212.95 108.952C215.854 108.714 217.748 106.61 218.406 104.284C218.815 102.843 218.14 101.386 216.812 99.9109C214.396 103.309 200.051 98.8672 196.075 96.7345Z" fill="black"/>
</svg>
